# xmcd
#
# Track frame offsets:
#	150
#	14681
#	30137
#	41790
#	54854
#	67040
#	82541
#	94527
#	105630
#	116872
#
# Disc length: 1717 seconds
#
# Revision: 1
# Processed by: cddbd v1.5.2PL0 Copyright (c) Steve Scherf et al.
# Submitted via: audiograbber 1.83.01
#
DISCID=7106b30a
DTITLE=Porter Wagoner - Viva
DYEAR=1983
DGENRE=Country
TTITLE0=This Cowboy's Hat
TTITLE1=That Was Then, This Is Now
TTITLE2=I Thought I Heard You Calling My Name
TTITLE3=Living In The Shadows
TTITLE4=Heaven, Hell Or Macon
TTITLE5=We Can't Stop
TTITLE6=Green, Green Grass Of Home
TTITLE7=His And Hers
TTITLE8=Misery Loves Company
TTITLE9=Bottom Of The Fifth
EXTD=
EXTT0=
EXTT1=
EXTT2=
EXTT3=
EXTT4=
EXTT5=
EXTT6=
EXTT7=
EXTT8=
EXTT9=
PLAYORDER=
